<?xml version="1.0" standalone="no"?> 
<!DOCTYPE svg PUBLIC "-//W3C//DTD SVG 20010904//EN"
 "http://www.w3.org/TR/2001/REC-SVG-20010904/DTD/svg10.dtd">
<svg version="1.0" xmlns="http://www.w3.org/2000/svg"
 width="626.000000pt" height="470.000000pt" viewBox="0 0 626.000000 470.000000"
 preserveAspectRatio="xMidYMid meet">

<g transform="translate(0.000000,470.000000) scale(0.100000,-0.100000)"
fill="#FFFFFF" stroke="none">
<path d="M3082 4090 l-51 -94 40 -76 c21 -42 39 -82 39 -89 0 -14 -158 -677
-167 -701 -3 -8 -20 40 -37 107 -18 67 -35 125 -38 128 -3 3 -11 -30 -19 -75
-7 -44 -16 -80 -21 -80 -4 0 -51 86 -104 191 l-95 191 23 25 c34 36 31 98 -5
129 -89 76 -200 -44 -118 -127 16 -16 37 -29 45 -29 14 0 16 -19 16 -138 0
-77 -3 -200 -7 -276 l-6 -136 -69 102 c-76 114 -73 118 -43 -44 6 -38 9 -68 6
-67 -3 0 -74 82 -157 182 -139 167 -150 184 -138 202 24 34 17 83 -15 116 -45
44 -107 35 -136 -21 -32 -63 11 -130 84 -130 l37 0 140 -297 139 -298 703 0
704 0 142 305 c132 281 145 305 167 302 55 -6 109 43 109 98 0 12 -13 35 -29
51 -61 60 -158 22 -149 -59 3 -20 8 -44 12 -53 5 -13 -32 -62 -145 -190 -84
-94 -155 -167 -157 -160 -2 7 1 55 7 108 6 53 10 97 9 99 -2 1 -28 -35 -58
-82 -30 -46 -58 -84 -61 -84 -4 0 -9 82 -13 183 -4 100 -9 205 -12 234 -6 50
-5 52 20 59 34 8 66 49 66 85 0 15 -12 41 -26 58 -35 42 -84 43 -125 2 -36
-37 -38 -79 -5 -118 l24 -29 -94 -193 c-52 -107 -97 -192 -100 -188 -3 3 -16
52 -28 109 l-22 102 -29 -132 c-16 -72 -33 -128 -36 -124 -4 4 -40 154 -80
335 l-73 327 41 83 41 82 -48 95 -47 94 -51 -94z m87 -162 c-18 -37 -36 -68
-39 -68 -3 0 -21 31 -39 68 l-33 69 22 44 c13 24 30 55 38 68 16 23 16 23 50
-45 l34 -68 -33 -68z"/>
<path d="M2640 2725 l-24 -26 25 -25 25 -25 24 26 24 26 -25 25 -25 25 -24
-26z"/>
<path d="M2952 2727 c-27 -29 -27 -39 -2 -62 20 -18 21 -18 48 8 l27 27 -26
25 -25 26 -22 -24z"/>
<path d="M3720 2725 l-24 -26 25 -25 25 -25 24 26 24 26 -25 25 -25 25 -24
-26z"/>
<path d="M2482 2717 l-22 -23 25 -24 25 -23 25 23 25 24 -22 23 c-12 13 -24
23 -28 23 -4 0 -16 -10 -28 -23z"/>
<path d="M2792 2717 l-22 -23 25 -24 25 -23 25 23 25 24 -22 23 c-12 13 -24
23 -28 23 -4 0 -16 -10 -28 -23z"/>
<path d="M3102 2717 l-22 -23 25 -24 25 -23 25 23 25 24 -22 23 c-12 13 -24
23 -28 23 -4 0 -16 -10 -28 -23z"/>
<path d="M3252 2717 l-22 -23 25 -24 25 -23 25 23 25 24 -22 23 c-12 13 -24
23 -28 23 -4 0 -16 -10 -28 -23z"/>
<path d="M3410 2718 l-20 -22 25 -25 24 -25 26 24 25 24 -22 23 c-27 28 -32
29 -58 1z"/>
<path d="M3562 2717 l-22 -23 25 -24 25 -23 25 23 25 24 -22 23 c-12 13 -24
23 -28 23 -4 0 -16 -10 -28 -23z"/>
<path d="M2470 2606 c0 -2 7 -20 15 -40 l15 -36 630 0 c347 0 630 2 630 4 0 2
7 20 15 40 l15 36 -660 0 c-363 0 -660 -2 -660 -4z"/>
<path d="M2500 1705 c0 -410 2 -745 5 -745 3 0 106 93 228 206 l222 206 5 146
5 147 114 -202 115 -201 145 -63 c486 -207 580 -246 574 -236 -10 17 -347 518
-415 616 -32 46 -58 87 -58 91 0 3 26 14 58 24 31 10 75 27 96 38 52 27 142
112 173 166 77 131 92 330 37 500 l-17 52 -644 0 -643 0 0 -745z m705 654
c100 -28 149 -101 149 -224 1 -171 -82 -235 -304 -235 l-90 0 0 242 0 241 103
-6 c56 -4 120 -12 142 -18z"/>
</g>
</svg>
